<?xml version="1.0" encoding="UTF-8"?>
<svg version="1.1" xmlns="http://www.w3.org/2000/svg" width="1378" height="310">
<path d="M0 0 C454.74 0 909.48 0 1378 0 C1378 102.3 1378 204.6 1378 310 C923.26 310 468.52 310 0 310 C0 207.7 0 105.4 0 0 Z " fill="#00000000" transform="translate(0,0)"/>
<path d="M0 0 C17.28141372 -0.09364181 34.56274771 -0.16407606 51.84435749 -0.20724869 C59.86938801 -0.22783162 67.89426044 -0.25586999 75.91918945 -0.30175781 C82.91766429 -0.34175697 89.91602458 -0.36746381 96.91461056 -0.37635398 C100.61678997 -0.38154674 104.3186418 -0.39366111 108.02071571 -0.42292023 C112.16410174 -0.45539845 116.30692638 -0.45595108 120.45043945 -0.45410156 C122.27061584 -0.47567322 122.27061584 -0.47567322 124.12756348 -0.49768066 C134.41237059 -0.44818675 143.53862369 1.82731474 151.5703125 8.515625 C156.0595299 13.10588587 159.78372214 18.29628558 163.59765625 23.44921875 C166.83703872 27.82205937 170.23103562 32.04775309 173.6875 36.25 C178.41524148 42.01953057 183.017527 47.86383586 187.54296875 53.79296875 C190.14402927 57.19854578 192.78718161 60.57018501 195.4375 63.9375 C195.88947754 64.51250244 196.34145508 65.08750488 196.80712891 65.67993164 C199.20877443 68.73289253 201.61813047 71.77951319 204.03515625 74.8203125 C204.53152588 75.44687744 205.02789551 76.07344238 205.53930664 76.71899414 C206.48524844 77.91284448 207.43350837 79.10486323 208.38452148 80.29467773 C215.64140762 89.46606559 215.64140762 89.46606559 215.36523438 96.01904297 C214.74034936 99.40829228 212.93230223 101.45814876 210.75 104.0625 C210.30180908 104.61067383 209.85361816 105.15884766 209.3918457 105.72363281 C208.43317849 106.89454924 207.46654812 108.05898434 206.49267578 109.21728516 C204.00620738 112.18689462 201.6030515 115.22267906 199.1875 118.25 C198.43762817 119.18223389 198.43762817 119.18223389 197.67260742 120.13330078 C193.89055176 124.84303048 190.21317269 129.62549888 186.5625 134.4375 C181.72340613 140.81228473 176.75065536 147.05817802 171.67529297 153.24609375 C168.2619884 157.4164105 164.94583795 161.64538202 161.6875 165.9375 C160.12966559 167.96193216 158.56752583 169.98306262 157 172 C156.32582031 172.86753906 155.65164063 173.73507813 154.95703125 174.62890625 C149.27749041 181.51010643 142.8511738 185.51745186 134 187 C132.11804896 187.08601038 130.23344771 187.12203347 128.34953308 187.12025452 C127.22357727 187.12162918 126.09762146 187.12300385 124.93754578 187.12442017 C123.71187393 187.12082489 122.48620209 187.11722961 121.22338867 187.11352539 C119.92543365 187.11367142 118.62747864 187.11381744 117.29019165 187.1139679 C113.73893419 187.11425441 110.18771062 187.10838115 106.63646102 187.10139394 C102.92221865 187.09513623 99.20797547 187.09455469 95.49372864 187.09336853 C88.46381816 187.09026235 81.43392327 187.08205856 74.40401965 187.07201904 C66.3992214 187.06083578 58.3944224 187.05534187 50.38961828 187.05032361 C33.92640307 187.03987535 17.46320352 187.02228971 1 187 C2.84664768 183.10472755 5.31173232 179.90818684 8 176.5625 C9.00448098 175.29863365 10.00837553 174.03430103 11.01171875 172.76953125 C11.768479 171.81747803 11.768479 171.81747803 12.54052734 170.84619141 C14.65805433 168.16757999 16.735778 165.46041495 18.8125 162.75 C28.34165429 150.32452237 37.98672558 137.98851601 47.67333984 125.68554688 C49.02918614 123.96291845 50.38393149 122.23943022 51.73828125 120.515625 C52.19460937 119.93506348 52.6509375 119.35450195 53.12109375 118.75634766 C54.0324623 117.59551456 54.94264077 116.43374603 55.8515625 115.27099609 C58.25081426 112.20538154 60.67450528 109.16379539 63.13671875 106.1484375 C63.6471875 105.51679687 64.15765625 104.88515625 64.68359375 104.234375 C65.66400124 103.02223483 66.65196296 101.8161542 67.6484375 100.6171875 C70.25748263 97.37309619 71 96.31895389 71 92 C69.62980293 89.91349601 68.25785246 88.04943157 66.6875 86.125 C66.23818115 85.55837646 65.7888623 84.99175293 65.32592773 84.40795898 C64.3725005 83.20657143 63.41511849 82.00831335 62.45410156 80.81298828 C60.5906342 78.48959866 58.75600357 76.14433831 56.92114258 73.79833984 C55.54586997 72.04125301 54.16622592 70.28768938 52.78515625 68.53515625 C50.01998315 65.02614675 47.25958557 61.51340443 44.5 58 C43.5833549 56.83331639 42.66668823 55.66664973 41.75 54.5 C39.91666667 52.16666667 38.08333333 49.83333333 36.25 47.5 C35.7964917 46.92282227 35.3429834 46.34564453 34.87573242 45.75097656 C33.95656687 44.58109984 33.03745905 43.41117777 32.1184082 42.24121094 C29.86543906 39.37328843 27.61156277 36.5060901 25.35546875 33.640625 C23.08464594 30.75582972 20.81736056 27.86828325 18.55224609 24.97900391 C17.4362189 23.55614822 16.31924338 22.13403617 15.20166016 20.71240234 C13.29820759 18.28969301 11.39876856 15.86388143 9.5 13.4375 C8.90018311 12.6753418 8.30036621 11.91318359 7.68237305 11.12792969 C7.11687744 10.40379883 6.55138184 9.67966797 5.96875 8.93359375 C5.21754883 7.9753772 5.21754883 7.9753772 4.45117188 6.99780273 C2.81497719 4.74528236 1.42008022 2.39330259 0 0 Z " fill="#108BBF" transform="translate(172,9)"/>
<path d="M0 0 C1.3509162 0.00113 2.70183485 0.00049164 4.05274963 -0.00177002 C7.69907224 -0.00291216 11.34486265 0.02051506 14.99106216 0.04852581 C18.8093619 0.07362358 22.62767542 0.07588803 26.44604492 0.08062744 C33.6672112 0.09303274 40.88813367 0.12582091 48.10919285 0.1660254 C56.33409667 0.21081959 64.55901248 0.23274932 72.78400803 0.25280714 C89.69468776 0.29455596 106.60513056 0.36486002 123.515625 0.45410156 C120.70520453 4.70789116 117.77513642 8.8100041 114.640625 12.82910156 C110.54429935 18.11579979 110.54429935 18.11579979 106.515625 23.45410156 C99.83636618 32.39087524 92.96965787 41.16886493 85.98022461 49.86425781 C81.92326387 54.92066537 77.96243773 60.0438182 74.0234375 65.19238281 C71.78898135 68.10746957 69.52809788 71.00102389 67.25708008 73.88769531 C66.31486568 75.08538456 65.37455262 76.28457237 64.4362793 77.48535156 C62.40507065 80.08084587 60.35695265 82.64206727 58.23046875 85.16113281 C57.58207031 85.9384375 56.93367187 86.71574219 56.265625 87.51660156 C55.70359375 88.16757813 55.1415625 88.81855469 54.5625 89.48925781 C53.11640569 92.20338257 53.69315859 93.53388373 54.515625 96.45410156 C55.71163709 98.49938332 55.71163709 98.49938332 57.2890625 100.38769531 C57.86108398 101.11190674 58.43310547 101.83611816 59.02246094 102.58227539 C59.63895508 103.34435303 60.25544922 104.10643066 60.890625 104.89160156 C61.52258789 105.68783936 62.15455078 106.48407715 62.80566406 107.30444336 C64.09372446 108.92653556 65.385381 110.54577882 66.68066406 112.16210938 C69.2303973 115.34690124 71.74837712 118.55612542 74.265625 121.76660156 C74.7095459 122.33048584 75.1534668 122.89437012 75.61083984 123.4753418 C79.02620243 127.81525321 82.39572382 132.18904935 85.75585938 136.57177734 C88.73273022 140.44942034 91.74088892 144.30120632 94.765625 148.14160156 C123.515625 184.6601966 123.515625 184.6601966 123.515625 186.45410156 C105.82581797 186.57110303 88.1361119 186.65917177 70.44600105 186.71316242 C62.23144694 186.73890188 54.01713379 186.77397038 45.80273438 186.83129883 C38.63982947 186.88126488 31.47709915 186.91342351 24.31402481 186.92454404 C20.52405223 186.93104063 16.73457894 186.94621901 12.944767 186.98275185 C9.37089362 187.01692099 5.79772079 187.0271131 2.22369957 187.01963997 C0.30038344 187.02165181 -1.62285797 187.04843698 -3.54597473 187.07620239 C-14.13018065 187.01383674 -21.86019032 183.75313719 -29.484375 176.45410156 C-31.04484574 174.60772265 -32.54324398 172.70756148 -33.984375 170.76660156 C-34.8533878 169.60976607 -35.72322713 168.45355115 -36.59375 167.29785156 C-37.28887695 166.36972656 -37.28887695 166.36972656 -37.99804688 165.42285156 C-40.70323753 161.83962924 -43.47264813 158.30630659 -46.234375 154.76660156 C-47.43762809 153.22112837 -48.64075169 151.67555434 -49.84375 150.12988281 C-50.44638672 149.35596191 -51.04902344 148.58204102 -51.66992188 147.78466797 C-55.18873646 143.26494191 -58.70513791 138.74333657 -62.22021484 134.22070312 C-65.20663609 130.37898424 -68.19731509 126.54070172 -71.1953125 122.70800781 C-90.14094673 98.46561002 -90.14094673 98.46561002 -90.921875 93.89160156 C-89.83117502 85.32181598 -81.97795138 78.28798347 -76.64770508 71.81201172 C-72.7940365 67.11771047 -69.09483781 62.33736069 -65.484375 57.45410156 C-60.88918824 51.24755627 -56.10785753 45.22633585 -51.21020508 39.25634766 C-47.79172255 35.08329576 -44.44595151 30.86632462 -41.171875 26.57910156 C-40.37523437 25.53882813 -39.57859375 24.49855469 -38.7578125 23.42675781 C-37.28269659 21.49795505 -35.80867231 19.56831676 -34.3359375 17.63769531 C-24.52101839 5.02119967 -16.20523092 -0.1860985 0 0 Z " fill="#DBA801" transform="translate(94.484375,102.5458984375)"/>
<path d="M0 0 C3.50556671 2.83886384 6.78465558 5.83753954 10 9 C10.70125 9.68835938 11.4025 10.37671875 12.125 11.0859375 C27.13332734 26.85640646 31.57548978 46.10748797 31.26953125 67.3125 C30.65504832 85.52298905 23.00363541 102.32334189 10 115 C9.175 115.886875 8.35 116.77375 7.5 117.6875 C-9.16021215 133.09819624 -28.30609837 138.84041813 -50.74609375 138.28125 C-70.16924943 137.45223393 -88.61467111 127.62207816 -101.87890625 113.5546875 C-114.78440154 98.01105229 -120.15411015 81.53189208 -120.3125 61.4375 C-120.34150391 60.23802734 -120.37050781 59.03855469 -120.40039062 57.80273438 C-120.53580943 38.50034622 -111.66962482 21.14353251 -98.44433594 7.42529297 C-72.42321321 -18.25275208 -29.58446971 -21.73552877 0 0 Z " fill="#07426B" transform="translate(695,151)"/>
<path d="M0 0 C0.70125 0.54140625 1.4025 1.0828125 2.125 1.640625 C15.67905414 12.54740294 23.90535452 29.11259458 27 46 C27.38102563 50.1788215 27.42188655 54.30625835 27.375 58.5 C27.38660156 59.53769531 27.39820313 60.57539063 27.41015625 61.64453125 C27.33439638 81.92292261 17.98400992 99.69504253 4.1171875 114.06640625 C-10.14956304 128.03688242 -30.87004328 134.60135603 -50.53979492 134.41723633 C-67.88910228 133.79768801 -85.15563922 126.69709748 -98 115 C-98.75667969 114.32324219 -99.51335937 113.64648438 -100.29296875 112.94921875 C-112.6172303 101.32684144 -121.88725776 83.768008 -123.17700195 66.65087891 C-123.72946768 44.79436629 -119.79864691 25.04827642 -104.5625 8.4375 C-102.75332925 6.5656105 -100.89766749 4.7865184 -99 3 C-98.22140625 2.26394531 -97.4428125 1.52789062 -96.640625 0.76953125 C-69.47164248 -22.79819352 -27.44707813 -23.18165383 0 0 Z " fill="#08426B" transform="translate(1230,155)"/>
<path d="M0 0 C1.00675781 0.36222656 2.01351562 0.72445312 3.05078125 1.09765625 C22.13049202 8.24951734 35.38697696 23.56918163 44.375 41.375 C48.53441047 51.8116859 49.26549771 62.7725168 49.3125 73.875 C49.31797852 74.8446167 49.32345703 75.8142334 49.32910156 76.81323242 C49.2575197 83.7424803 49.2575197 83.7424803 47 86 C44.95790672 86.26171303 44.95790672 86.26171303 42.39364624 86.2784729 C41.4232692 86.28963638 40.45289215 86.30079987 39.45310974 86.31230164 C38.38496536 86.31446182 37.31682098 86.31662201 36.21630859 86.31884766 C34.53337959 86.33391609 34.53337959 86.33391609 32.81645203 86.34928894 C29.09378592 86.3802745 25.37119221 86.39719879 21.6484375 86.4140625 C19.07296112 86.43276177 16.49749095 86.45233423 13.92202759 86.4727478 C7.82703262 86.51894144 1.73204165 86.55630246 -4.36303651 86.58942068 C-11.30134017 86.62761083 -18.2395495 86.67702906 -25.17777371 86.72740483 C-39.45177806 86.83079058 -53.72584624 86.9200293 -68 87 C-67.04726778 88.77585611 -66.09102967 90.54983167 -65.13330078 92.32299805 C-64.60116974 93.31107956 -64.0690387 94.29916107 -63.52078247 95.31718445 C-57.83574237 105.34617564 -48.24623914 110.55951346 -37.61328125 114.140625 C-25.48005662 117.02636491 -13.09182412 114.89167412 -1.6875 110.3125 C4.73370672 108.02698574 4.73370672 108.02698574 9 109 C15.80464006 114.84311483 20.89835772 122.68810943 26 130 C22.0735458 133.38174379 18.04352354 135.76774473 13.4375 138.0625 C12.38175781 138.58855835 12.38175781 138.58855835 11.3046875 139.12524414 C-5.98498909 147.47002339 -29.00748059 149.11033499 -47.375 143.390625 C-58.39583232 139.1628057 -68.22404858 134.00641837 -77 126 C-77.91265625 125.22462891 -77.91265625 125.22462891 -78.84375 124.43359375 C-87.86036664 116.25716184 -94.09248899 104.37009086 -98 93 C-98.47759766 91.65808594 -98.47759766 91.65808594 -98.96484375 90.2890625 C-104.31984515 72.66938049 -101.57940065 52.89706248 -93.25805664 36.76879883 C-82.81113876 17.43833474 -67.33616913 4.37246138 -46.3125 -2.375 C-31.44844496 -6.02582054 -14.16397675 -6.09310706 0 0 Z " fill="#08426B" transform="translate(994,143)"/>
<path d="M0 0 C-1.54609553 4.79289613 -4.26243891 8.20046697 -7.375 12.0625 C-7.85710937 12.67416016 -8.33921875 13.28582031 -8.8359375 13.91601562 C-15.87141739 22.75816087 -15.87141739 22.75816087 -19.625 23.5625 C-22.89251942 23.01791343 -24.79004265 22.2028105 -27.6875 20.6875 C-36.81354535 15.95647207 -44.84848041 14.72455351 -55.0625 14.625 C-56.44550293 14.60409302 -56.44550293 14.60409302 -57.85644531 14.58276367 C-73.74854052 14.69174936 -88.28373411 22.09218839 -99.375 33.1796875 C-111.72978428 46.45372656 -116.78084975 62.09506405 -116.37890625 79.9609375 C-115.55539566 95.32723191 -108.96276049 107.61398801 -99 119 C-99 119.66 -99 120.32 -99 121 C-98.41476562 121.27199219 -97.82953125 121.54398438 -97.2265625 121.82421875 C-95.03850838 122.97966487 -93.29721302 124.26246014 -91.375 125.8125 C-80.3429385 134.17321204 -69.04415639 137.23984874 -55.375 137.3125 C-54.49223389 137.31805908 -53.60946777 137.32361816 -52.69995117 137.3293457 C-44.49971105 137.23973815 -37.36031463 135.85382207 -29.875 132.4375 C-20.66217201 128.57744169 -20.66217201 128.57744169 -17 129 C-13.8136984 131.5979596 -11.46190339 134.72648011 -9 138 C-8.16438942 139.09139621 -7.32844059 140.18253351 -6.4921875 141.2734375 C-4.29626647 144.15915212 -2.13992844 147.07245901 0 150 C-1.24102763 154.0842775 -3.86554464 155.37797666 -7.40869141 157.29882812 C-8.14007324 157.67458984 -8.87145508 158.05035156 -9.625 158.4375 C-10.3782959 158.83001953 -11.1315918 159.22253906 -11.90771484 159.62695312 C-31.83725345 169.68104598 -56.96072643 172.87031232 -78.71484375 167.1015625 C-104.01084585 158.619431 -125.83942146 143.16424208 -138.10498047 118.828125 C-149.12751216 96.31401771 -151.90654585 70.16931486 -143.74609375 46.1953125 C-135.02523312 22.21371047 -117.69748077 2.84874038 -94.9296875 -8.53515625 C-63.27836177 -22.33513427 -28.43373487 -19.89005301 0 0 Z " fill="#08426B" transform="translate(569,120)"/>
<path d="M0 0 C0.58265625 0.44730469 1.1653125 0.89460937 1.765625 1.35546875 C-1.96667957 6.36461436 -5.74166563 11.33910696 -9.546875 16.29296875 C-9.99144043 16.87264404 -10.43600586 17.45231934 -10.89404297 18.04956055 C-14.94130867 23.31038162 -14.94130867 23.31038162 -17.671875 23.73046875 C-21.99446137 23.27545966 -24.89573116 21.71414855 -28.671875 19.64453125 C-34.36885627 16.77867177 -39.32962417 15.96657857 -45.609375 15.98046875 C-46.36234863 15.98208008 -47.11532227 15.98369141 -47.89111328 15.98535156 C-54.71116489 16.13634902 -58.97943691 17.50739792 -64.234375 22.10546875 C-65.75589288 25.52888399 -65.84932956 28.72361949 -65.234375 32.35546875 C-63.7191628 35.45476644 -62.44858035 36.89876394 -59.19042969 38.12426758 C-58.39540039 38.35138428 -57.60037109 38.57850098 -56.78125 38.8125 C-55.88937988 39.06765381 -54.99750977 39.32280762 -54.07861328 39.58569336 C-50.32512014 40.60155292 -46.55894921 41.55849893 -42.78564453 42.49780273 C-26.62230218 46.54470666 -11.20837433 50.88737088 -1.234375 65.35546875 C6.35490832 78.40481979 7.11914669 89.56757227 3.6640625 104.1328125 C0.58953552 115.16100711 -6.98249606 124.07640326 -16.70703125 130.109375 C-32.32300262 137.80874883 -51.89781763 138.87376873 -68.46875 133.81640625 C-79.25435266 129.85938802 -89.63313473 123.9765107 -98.234375 116.35546875 C-95.0112107 111.37135615 -91.52335793 106.64909216 -87.859375 101.98046875 C-87.30765625 101.24441406 -86.7559375 100.50835937 -86.1875 99.75 C-82.07071519 94.5412042 -82.07071519 94.5412042 -78.15625 93.671875 C-74.78019598 94.46172721 -72.68525975 95.66664568 -69.859375 97.66796875 C-62.91861368 102.31705786 -56.68756405 104.82814316 -48.234375 105.35546875 C-47.50089844 105.40832031 -46.76742188 105.46117187 -46.01171875 105.515625 C-40.36989374 105.73820129 -36.40964389 104.5861881 -31.234375 102.35546875 C-30.244375 102.02546875 -29.254375 101.69546875 -28.234375 101.35546875 C-27.05046277 98.9792153 -27.05046277 98.9792153 -26.234375 96.35546875 C-25.739375 94.87046875 -25.739375 94.87046875 -25.234375 93.35546875 C-24.85636812 88.25237589 -25.22594488 85.49370233 -28.234375 81.35546875 C-35.61289147 75.85463926 -44.50423259 74.19344019 -53.29125977 72.24780273 C-68.36515916 68.8450648 -82.05419949 63.42214192 -91.234375 50.35546875 C-96.78168881 40.02055077 -99.14297689 30.11664127 -96.5859375 18.37890625 C-93.12573962 8.11660998 -87.68986514 -1.06733652 -78.234375 -6.64453125 C-77.47253906 -7.09441406 -76.71070313 -7.54429687 -75.92578125 -8.0078125 C-52.21502129 -20.8685287 -21.13745249 -15.58720946 0 0 Z " fill="#08436B" transform="translate(1364.234375,152.64453125)"/>
<path d="M0 0 C15.29889684 -0.07009949 30.59778628 -0.12299278 45.89680767 -0.15543652 C53.0005143 -0.17090152 60.10412111 -0.19198393 67.20776367 -0.22631836 C74.06123108 -0.25942779 80.91459463 -0.27684605 87.76813698 -0.28463173 C90.38485155 -0.29018125 93.00156034 -0.30101786 95.61823082 -0.31719017 C99.27906002 -0.33891912 102.93945864 -0.34196875 106.6003418 -0.34057617 C107.68575256 -0.351362 108.77116333 -0.36214783 109.88946533 -0.3732605 C117.02465953 -0.34382746 120.3741932 0.72430077 125.8125 5.4375 C128.75802078 9.25157178 128.88348697 13.16875237 128.6640625 17.86328125 C127.42833134 23.70029371 123.78897233 27.54555943 120 32 C118.67526393 33.67157055 117.36901311 35.35664179 116.0625 37.04248047 C114.19429285 39.44739911 112.30150427 41.83250653 110.41015625 44.21923828 C108.16254902 47.05754284 105.92456579 49.90338396 103.6875 52.75 C103.24172607 53.3169458 102.79595215 53.8838916 102.33666992 54.46801758 C97.94517206 60.05881241 93.58430392 65.6733167 89.22290039 71.28759766 C83.84117932 78.21217322 78.42707456 85.11093801 73 92 C69.16954947 90.72318316 67.79711825 88.44148159 65.5 85.3125 C64.60365565 84.11919705 63.70649216 82.92650904 62.80859375 81.734375 C62.11419189 80.8072168 62.11419189 80.8072168 61.40576172 79.86132812 C59.16602417 76.8957569 56.86525315 73.9792383 54.5625 71.0625 C53.63666486 69.88676119 52.71088391 68.71097969 51.78515625 67.53515625 C51.32512207 66.95137207 50.86508789 66.36758789 50.39111328 65.76611328 C48.09125763 62.84628952 45.79584055 59.92298107 43.5 57 C42.5833549 55.83331639 41.66668823 54.66664973 40.75 53.5 C38.91666667 51.16666667 37.08333333 48.83333333 35.25 46.5 C34.7964917 45.92282227 34.3429834 45.34564453 33.87573242 44.75097656 C32.95656687 43.58109984 32.03745905 42.41117777 31.1184082 41.24121094 C28.86543906 38.37328843 26.61156277 35.5060901 24.35546875 32.640625 C22.08586257 29.75748792 19.82038317 26.87114114 17.55664062 23.98339844 C16.43426652 22.55332202 15.31038222 21.12443039 14.18554688 19.69628906 C12.26615775 17.25848915 10.35150341 14.81702974 8.4375 12.375 C7.8293042 11.60446289 7.2211084 10.83392578 6.59448242 10.04003906 C6.02576416 9.31268555 5.4570459 8.58533203 4.87109375 7.8359375 C4.36505615 7.19188965 3.85901855 6.5478418 3.33764648 5.88427734 C1.99434853 3.99203906 1.01391533 2.08253013 0 0 Z " fill="#00375B" transform="translate(173,10)"/>
<path d="M0 0 C10.29737386 7.52036014 17.5477932 17.54900617 20.16796875 30.1875 C21.89458188 43.34709199 19.06081284 55.54538394 11.17578125 66.3671875 C3.95828837 74.86414503 -6.29413912 82.37355719 -17.70092773 83.62792969 C-28.54975663 84.23750195 -37.90696657 83.94302827 -47.54296875 78.390625 C-48.59484375 77.813125 -49.64671875 77.235625 -50.73046875 76.640625 C-61.61556724 67.93254621 -68.20648981 58.28464865 -70.54296875 44.390625 C-71.73978727 32.35668052 -69.77218226 21.96534338 -62.66796875 12.015625 C-61.64740987 10.78941194 -60.60596811 9.58023471 -59.54296875 8.390625 C-59.05441406 7.79894531 -58.56585937 7.20726562 -58.0625 6.59765625 C-43.47109387 -9.72310172 -17.95483052 -11.36311855 0 0 Z " fill="#fefefe" transform="translate(675.54296875,174.609375)"/>
<path d="M0 0 C6.53516057 5.27029078 11.4454627 12.26101356 14.54296875 20.05078125 C14.89746094 20.93121094 15.25195312 21.81164062 15.6171875 22.71875 C18.84627826 34.34075177 17.34600472 47.57023517 11.54296875 58.05078125 C4.42455389 69.22719983 -5.62614374 76.59162274 -18.45703125 80.05078125 C-32.29169028 81.58078003 -44.66892432 80.08553019 -56.26953125 71.92578125 C-65.68540858 63.94651755 -71.79127962 53.25086956 -73.45703125 41.05078125 C-74.53373094 27.45965398 -71.33336526 16.47695136 -62.45703125 6.05078125 C-45.32706458 -12.39687517 -20.4446868 -13.77729976 0 0 Z " fill="#fefefe" transform="translate(1210.45703125,177.94921875)"/>
<path d="M0 0 C-2.04648917 5.42882248 -4.94906502 10.17151799 -7.9375 15.125 C-8.47568359 16.03121094 -9.01386719 16.93742187 -9.56835938 17.87109375 C-10.09107422 18.74121094 -10.61378906 19.61132812 -11.15234375 20.5078125 C-11.62663818 21.29816895 -12.10093262 22.08852539 -12.58959961 22.90283203 C-13.94165937 24.91325152 -15.10686088 26.48916355 -17 28 C-19.82423 28.30187042 -22.48528231 28.46637124 -25.3125 28.5 C-32.09036635 28.58187241 -36.91281066 29.15459869 -42.13705444 33.96968079 C-44.8411187 38.36818715 -44.55687468 42.1961983 -44.51416016 47.26635742 C-44.52128525 48.29775345 -44.52841034 49.32914948 -44.53575134 50.39179993 C-44.55503128 53.79655105 -44.54675431 57.20068117 -44.5390625 60.60546875 C-44.54896546 62.97008678 -44.56090516 65.33469709 -44.57479858 67.69929504 C-44.60718007 73.92100303 -44.61755536 80.14253488 -44.62164307 86.36431885 C-44.63039708 96.33418258 -44.66574761 106.30390162 -44.7138176 116.2736454 C-44.72645244 119.76257786 -44.72564068 123.25132934 -44.72354126 126.74028015 C-44.73011815 128.8674636 -44.73712373 130.99464579 -44.74462891 133.12182617 C-44.74050491 134.09795868 -44.73638092 135.07409119 -44.73213196 136.07980347 C-44.7375148 136.96722733 -44.74289764 137.85465118 -44.7484436 138.76896667 C-44.74877909 139.54230945 -44.74911457 140.31565222 -44.74946022 141.11242962 C-45 143 -45 143 -47 145 C-49.88916016 145.22705078 -49.88916016 145.22705078 -53.5390625 145.1953125 C-55.49199219 145.18564453 -55.49199219 145.18564453 -57.484375 145.17578125 C-58.86458595 145.15906929 -60.24479429 145.14213939 -61.625 145.125 C-63.01301452 145.11497006 -64.40103589 145.10584423 -65.7890625 145.09765625 C-69.19288026 145.07401863 -72.59635506 145.04106867 -76 145 C-76.09376255 130.86509606 -76.16386802 116.73024089 -76.20724869 102.59508896 C-76.22807494 96.03073042 -76.25630222 89.46658161 -76.30175781 82.90234375 C-76.34539201 76.56105757 -76.36917439 70.21997246 -76.37950897 63.87854767 C-76.3868688 61.46577034 -76.40124047 59.05300334 -76.42292023 56.64031219 C-76.63179978 32.4193931 -76.63179978 32.4193931 -72 23 C-71.49339844 21.92363281 -70.98679687 20.84726563 -70.46484375 19.73828125 C-63.35472244 8.44573564 -53.9083697 1.48790689 -41 -2 C-27.19851987 -4.1992144 -13.47970983 -3.6942761 0 0 Z " fill="#0A446C" transform="translate(817,144)"/>
<path d="M0 0 C1.0725 -0.01611328 2.145 -0.03222656 3.25 -0.04882812 C10.20594538 -0.05305924 16.09702049 0.89672713 22.625 3.3125 C22.03715923 7.29352067 20.79917906 10.12522142 18.75390625 13.578125 C18.17962891 14.55007812 17.60535156 15.52203125 17.01367188 16.5234375 C16.41103516 17.52632812 15.80839844 18.52921875 15.1875 19.5625 C14.58873047 20.58085937 13.98996094 21.59921875 13.37304688 22.6484375 C8.88894162 30.18052919 8.88894162 30.18052919 6.625 31.3125 C2.92538519 31.59433281 -0.77431033 31.75992531 -4.48046875 31.93359375 C-9.76299016 32.44754017 -14.01453575 32.88043236 -17.75 36.8125 C-19.8607129 40.05975062 -20.50063215 41.70570792 -20.51976013 45.52575684 C-20.52665863 46.40910202 -20.53355713 47.2924472 -20.54066467 48.20256042 C-20.54458473 49.65980278 -20.54458473 49.65980278 -20.54858398 51.14648438 C-20.555271 52.16768875 -20.56195801 53.18889313 -20.56884766 54.24104309 C-20.58292 56.46348364 -20.59480705 58.68593883 -20.60479546 60.90840149 C-20.62116193 64.42088143 -20.64439657 67.93325244 -20.66969299 71.44567871 C-20.74059916 81.4339458 -20.80069377 91.42225692 -20.85180664 101.41064453 C-20.88352269 107.51434255 -20.92477718 113.61791506 -20.97200203 119.72151184 C-20.98806442 122.05318453 -21.00036626 124.38488615 -21.00890923 126.71659851 C-21.02100538 129.97070125 -21.04513004 133.22450648 -21.07202148 136.47851562 C-21.07261063 137.45001053 -21.07319977 138.42150543 -21.07380676 139.42243958 C-21.08352509 140.30578476 -21.09324341 141.18912994 -21.10325623 142.09924316 C-21.10748816 142.86910805 -21.1117201 143.63897293 -21.11608028 144.43216705 C-21.375 146.3125 -21.375 146.3125 -23.375 148.3125 C-26.17236328 148.53955078 -26.17236328 148.53955078 -29.6953125 148.5078125 C-31.58056641 148.49814453 -31.58056641 148.49814453 -33.50390625 148.48828125 C-34.82261719 148.47152344 -36.14132812 148.45476562 -37.5 148.4375 C-38.83983721 148.42746983 -40.17968152 148.41834404 -41.51953125 148.41015625 C-44.80486573 148.38652075 -48.08984465 148.35357234 -51.375 148.3125 C-51.49224224 133.93413485 -51.57985361 119.55584473 -51.63406086 105.17709827 C-51.65974995 98.49948181 -51.69535454 91.82220772 -51.75219727 85.14477539 C-51.8067694 78.69324792 -51.83647391 72.24202951 -51.84938622 65.79028893 C-51.85858086 63.33645454 -51.87653533 60.88263589 -51.90365028 58.4289341 C-52.10216495 39.70991686 -50.95867388 26.46183099 -37.53515625 12.3828125 C-27.00319508 2.34621965 -14.0249225 -0.04184046 0 0 Z " fill="#07426A" transform="translate(873.375,140.6875)"/>
<path d="M0 0 C1.25554687 -0.00128906 2.51109375 -0.00257813 3.8046875 -0.00390625 C4.46178711 -0.00181152 5.11888672 0.0002832 5.79589844 0.00244141 C7.80411335 0.00779016 9.81210459 0.00249559 11.8203125 -0.00390625 C13.07585937 -0.00261719 14.33140625 -0.00132812 15.625 0 C16.78644531 0.00112793 17.94789062 0.00225586 19.14453125 0.00341797 C21.8125 0.1328125 21.8125 0.1328125 22.8125 1.1328125 C22.91116627 2.97811423 22.93882156 4.82723338 22.93948364 6.6751709 C22.94230347 7.87832443 22.94512329 9.08147797 22.94802856 10.3210907 C22.94608397 11.66653457 22.94403579 13.0119783 22.94189453 14.35742188 C22.94324854 15.7647964 22.94502847 17.17217057 22.94720459 18.57954407 C22.95177895 22.41208318 22.94998935 26.24459549 22.9468255 30.07713509 C22.94430192 34.07921549 22.94663944 38.08129353 22.94821167 42.08337402 C22.95003337 48.80542413 22.94762705 55.52746327 22.94287109 62.24951172 C22.93742847 70.03219974 22.93919113 77.81486157 22.9446975 85.59754896 C22.94922862 92.26759551 22.94987918 98.93763416 22.94725883 105.60768175 C22.94569605 109.59666912 22.94550232 113.58564415 22.94879532 117.57463074 C22.95167402 121.32396362 22.94969837 125.07326258 22.94390106 128.82259178 C22.94257346 130.20252107 22.94296759 131.58245319 22.94516373 132.96238136 C22.94787517 134.83840461 22.94388046 136.71443405 22.93948364 138.5904541 C22.93910662 139.64276466 22.93872959 140.69507523 22.93834114 141.77927399 C22.8125 144.1328125 22.8125 144.1328125 21.8125 145.1328125 C19.7519469 145.23274782 17.6879741 145.26362156 15.625 145.265625 C14.36945313 145.26691406 13.11390625 145.26820313 11.8203125 145.26953125 C11.16321289 145.26743652 10.50611328 145.2653418 9.82910156 145.26318359 C7.82088665 145.25783484 5.81289541 145.26312941 3.8046875 145.26953125 C2.54914063 145.26824219 1.29359375 145.26695312 0 145.265625 C-1.16144531 145.26449707 -2.32289062 145.26336914 -3.51953125 145.26220703 C-6.1875 145.1328125 -6.1875 145.1328125 -7.1875 144.1328125 C-7.28616627 142.28751077 -7.31382156 140.43839162 -7.31448364 138.5904541 C-7.31730347 137.38730057 -7.32012329 136.18414703 -7.32302856 134.9445343 C-7.32108397 133.59909043 -7.31903579 132.2536467 -7.31689453 130.90820312 C-7.31824854 129.5008286 -7.32002847 128.09345443 -7.32220459 126.68608093 C-7.32677895 122.85354182 -7.32498935 119.02102951 -7.3218255 115.18848991 C-7.31930192 111.18640951 -7.32163944 107.18433147 -7.32321167 103.18225098 C-7.32503337 96.46020087 -7.32262705 89.73816173 -7.31787109 83.01611328 C-7.31242847 75.23342526 -7.31419113 67.45076343 -7.3196975 59.66807604 C-7.32422862 52.99802949 -7.32487918 46.32799084 -7.32225883 39.65794325 C-7.32069605 35.66895588 -7.32050232 31.67998085 -7.32379532 27.69099426 C-7.32667402 23.94166138 -7.32469837 20.19236242 -7.31890106 16.44303322 C-7.31757346 15.06310393 -7.31796759 13.68317181 -7.32016373 12.30324364 C-7.32287517 10.42722039 -7.31888046 8.55119095 -7.31448364 6.6751709 C-7.31410662 5.62286034 -7.31372959 4.57054977 -7.31334114 3.48635101 C-7.062825 -1.19891623 -4.02858758 0.00391234 0 0 Z " fill="#07426A" transform="translate(1068.1875,143.8671875)"/>
<path d="M0 0 C8.64766719 5.74320754 16.31203033 12.68684347 20.3203125 22.45703125 C20.3203125 23.44703125 20.3203125 24.43703125 20.3203125 25.45703125 C-8.0596875 25.45703125 -36.4396875 25.45703125 -65.6796875 25.45703125 C-61.68009388 13.45825039 -53.80454311 4.39093652 -42.4921875 -1.48046875 C-28.83321092 -7.97255472 -13.09097079 -7.53780388 0 0 Z " fill="#fefefe" transform="translate(990.6796875,173.54296875)"/>
</svg>
